<?xml version="1.0" encoding="utf-8"?>
<!-- Generator: Adobe Illustrator 16.0.0, SVG Export Plug-In . SVG Version: 6.00 Build 0)  -->
<!DOCTYPE svg PUBLIC "-//W3C//DTD SVG 1.1//EN" "http://www.w3.org/Graphics/SVG/1.1/DTD/svg11.dtd">
<svg version="1.1" id="Calque_1" xmlns="http://www.w3.org/2000/svg" xmlns:xlink="http://www.w3.org/1999/xlink" x="0px" y="0px"
	 width="16px" height="16px" viewBox="0 0 16 16" enable-background="new 0 0 16 16" xml:space="preserve">
<g>
	<path fill="#63BCEA" d="M8,0.212C3.699,0.212,0.212,3.699,0.212,8S3.699,15.788,8,15.788c4.302,0,7.788-3.487,7.788-7.788
		S12.302,0.212,8,0.212z M8,14.573c-3.631,0-6.573-2.942-6.573-6.573S4.369,1.426,8,1.426S14.573,4.369,14.573,8
		S11.631,14.573,8,14.573z"/>
	<g>
		<path fill="#63BCEA" d="M5.139,5.512c0-0.409,0.313-0.736,0.724-0.736c0.411,0,0.736,0.327,0.736,0.736v0.315
			c0.41-0.593,1.003-1.112,1.994-1.112c1.437,0,2.269,0.967,2.269,2.441v3.403c0,0.411-0.313,0.726-0.724,0.726
			s-0.736-0.314-0.736-0.726V7.602c0-0.99-0.496-1.557-1.366-1.557c-0.844,0-1.437,0.591-1.437,1.582v2.933
			c0,0.411-0.325,0.726-0.736,0.726c-0.398,0-0.724-0.314-0.724-0.726V5.512z"/>
	</g>
</g>
</svg>
