<?xml version="1.0" encoding="utf-8"?>
<!-- Generator: Adobe Illustrator 16.0.0, SVG Export Plug-In . SVG Version: 6.00 Build 0)  -->
<!DOCTYPE svg PUBLIC "-//W3C//DTD SVG 1.1//EN" "http://www.w3.org/Graphics/SVG/1.1/DTD/svg11.dtd">
<svg version="1.1" id="Calque_1" xmlns="http://www.w3.org/2000/svg" xmlns:xlink="http://www.w3.org/1999/xlink" x="0px" y="0px"
	 width="192px" height="192px" viewBox="0 0 192 192" enable-background="new 0 0 192 192" xml:space="preserve">
<rect fill="none" width="192" height="192"/>
<g>
	<polyline fill="#657F05" points="110.836,45.342 109.098,49.325 109.071,46.209 	"/>
	<polyline fill="#657F05" points="32.447,157.344 34.672,163.504 37.548,162.635 	"/>
	<polyline fill="#657F05" points="29.978,144.186 28.296,138.375 8.75,146.955 7.31,141.525 19.168,131.598 18.165,125.771 
		44.104,131.355 	"/>
	<polyline fill="#657F05" points="68.372,32.407 68.219,29.32 78.786,27.817 78.862,31.192 	"/>
	<polyline fill="#657F05" points="123.17,30.451 123.159,27.105 140.021,24.82 140.097,28.238 	"/>
	<polyline fill="#657F05" points="109.24,48.732 110.46,46.293 115.911,47.06 115.741,49.943 	"/>
	<polyline fill="#657F05" points="44,65 44,60.987 55,59.53 55,64 	"/>
	<polyline fill="#657F05" points="36.255,106.164 36.069,102.828 42.925,103.419 42.871,106.798 	"/>
	<polyline fill="#657F05" points="9.06,110.916 9.05,107.898 19.993,106.584 20.075,109.754 	"/>
	<polyline fill="#657F05" points="8.537,131.68 8.705,127.971 15.385,128.98 15.361,132.443 	"/>
	<polyline fill="#657F05" points="18,158 18,155.846 27,150.826 27,154.121 25.51,157.18 27.862,156.93 28.22,159.482 	"/>
	<polyline fill="#657F05" points="81.067,167.18 80.874,163.813 91,162.398 91,165.643 88.428,168.676 90.008,168.119 
		90.641,168.676 90.67,171.736 	"/>
	<polyline fill="#657F05" points="140,136 140,132.242 150.576,131.336 150.725,134.715 148.131,137.197 149.429,137.377 
		149.313,140.725 	"/>
	<polyline fill="#657F05" points="166.742,108.846 166.656,111.819 170.927,115.652 181.979,119.669 181.781,116.832 
		177.123,111.84 183.611,110.066 183.692,106.722 	"/>
	<polyline fill="#657F05" points="138.324,38.416 138.362,35.234 135.566,33.321 	"/>
	<g>
		<path fill="#657F05" d="M50.368,116.848c-0.27,0-0.522-0.032-0.75-0.095c-0.556-0.159-1.36-0.636-1.822-1.463
			c-0.842-1.506-0.342-3.28,1.164-4.125l5.829-3.264c0.47-0.264,0.995-0.403,1.515-0.403c1.088,0,2.065,0.587,2.614,1.569
			c0.404,0.723,0.508,1.543,0.292,2.31c-0.216,0.768-0.734,1.413-1.458,1.818l-5.829,3.263
			C51.473,116.71,50.921,116.848,50.368,116.848L50.368,116.848z"/>
		<g>
			<path fill="#657F05" d="M56.303,108.498c0.7,0,1.36,0.375,1.741,1.057c0.567,1.014,0.234,2.2-0.78,2.768l-5.829,3.264
				c-0.332,0.186-0.725,0.262-1.067,0.262c-0.18,0-0.346-0.021-0.482-0.059c-0.397-0.113-0.933-0.479-1.216-0.986
				c-0.567-1.014-0.233-2.197,0.779-2.766l5.828-3.263C55.609,108.588,55.961,108.498,56.303,108.498 M56.303,106.498
				c-0.691,0-1.385,0.184-2.005,0.532l-5.827,3.262c-1.971,1.106-2.65,3.517-1.548,5.487c0.509,0.912,1.434,1.653,2.413,1.934
				c0.329,0.091,0.671,0.135,1.031,0.135c0.721,0,1.447-0.184,2.042-0.516l5.831-3.265c0.957-0.535,1.643-1.395,1.931-2.419
				c0.288-1.023,0.152-2.114-0.383-3.07C59.062,107.275,57.759,106.498,56.303,106.498L56.303,106.498z"/>
		</g>
	</g>
	<g>
		<path fill="#657F05" d="M11.459,148.121c-0.269,0-0.531-0.034-0.758-0.098c-0.551-0.157-1.356-0.632-1.818-1.458
			c-0.831-1.481-0.319-3.294,1.164-4.125l29.45-16.657c0.474-0.266,0.997-0.405,1.517-0.405c1.089,0,2.068,0.587,2.616,1.57
			c0.405,0.721,0.509,1.542,0.292,2.31c-0.216,0.766-0.733,1.41-1.456,1.815l-29.45,16.655
			C12.564,147.982,12.013,148.121,11.459,148.121L11.459,148.121z"/>
		<g>
			<path fill="#657F05" d="M41.014,126.379c0.701,0,1.362,0.375,1.743,1.057c0.569,1.014,0.232,2.198-0.779,2.766l-29.453,16.657
				c-0.331,0.186-0.723,0.263-1.065,0.263c-0.182,0-0.35-0.021-0.487-0.061c-0.396-0.112-0.933-0.477-1.217-0.983
				c-0.567-1.013-0.23-2.198,0.78-2.765l29.453-16.659C40.321,126.467,40.672,126.379,41.014,126.379 M41.014,124.379
				c-0.69,0-1.382,0.183-2.001,0.529L9.552,141.572c-1.966,1.101-2.646,3.511-1.541,5.482c0.511,0.912,1.437,1.652,2.416,1.93
				c0.323,0.091,0.669,0.137,1.033,0.137c0.722,0,1.447-0.184,2.043-0.518l29.459-16.662c0.949-0.531,1.634-1.39,1.923-2.412
				c0.289-1.025,0.153-2.115-0.384-3.072C43.775,125.156,42.471,124.379,41.014,124.379L41.014,124.379z"/>
		</g>
	</g>
	<g>
		<path fill="#657F05" d="M32.949,146.076c-0.268,0-0.53-0.034-0.757-0.098c-0.554-0.159-1.359-0.636-1.82-1.46
			c-0.829-1.482-0.317-3.295,1.164-4.126l29.4-16.459c0.47-0.264,0.994-0.403,1.514-0.403c1.089,0,2.066,0.587,2.614,1.571
			c0.829,1.48,0.317,3.293-1.166,4.124l-29.396,16.459C34.056,145.937,33.503,146.076,32.949,146.076z"/>
		<g>
			<path fill="#657F05" d="M62.45,124.53c0.7,0,1.361,0.376,1.741,1.058c0.566,1.012,0.232,2.197-0.781,2.766l-29.396,16.459
				c-0.331,0.187-0.723,0.264-1.065,0.264c-0.181,0-0.349-0.021-0.486-0.061c-0.396-0.113-0.935-0.477-1.218-0.984
				c-0.566-1.014-0.231-2.199,0.78-2.767l29.399-16.458C61.757,124.619,62.108,124.53,62.45,124.53 M62.45,122.53
				c-0.691,0-1.384,0.185-2.005,0.532L31.048,139.52c-1.971,1.105-2.651,3.516-1.549,5.487c0.608,1.089,1.645,1.712,2.413,1.932
				c0.327,0.092,0.673,0.138,1.037,0.138c0.723,0,1.45-0.186,2.046-0.521l29.391-16.456c1.973-1.106,2.653-3.517,1.549-5.487
				C65.21,123.31,63.906,122.53,62.45,122.53L62.45,122.53z"/>
		</g>
	</g>
	<g>
		<path fill="#657F05" d="M22.241,132.598c-0.273,0-0.529-0.033-0.76-0.099c-0.549-0.155-1.355-0.63-1.816-1.457
			c-0.405-0.723-0.508-1.544-0.291-2.312c0.217-0.767,0.735-1.411,1.459-1.814l21.791-12.204c0.359-0.202,0.78-0.309,1.215-0.309
			c1.083,0,2.103,0.62,2.661,1.618c0.405,0.719,0.509,1.54,0.292,2.309c-0.217,0.766-0.733,1.411-1.455,1.817l-21.543,12.061
			C23.343,132.46,22.792,132.598,22.241,132.598z"/>
		<g>
			<path fill="#657F05" d="M43.839,115.404c0.657,0,1.382,0.378,1.788,1.104c0.568,1.011,0.231,2.198-0.78,2.767l-21.542,12.061
				c-0.332,0.186-0.722,0.262-1.065,0.262c-0.182,0-0.35-0.021-0.487-0.061c-0.394-0.111-0.934-0.477-1.216-0.982
				c-0.567-1.014-0.232-2.2,0.782-2.766l21.793-12.205C43.328,115.463,43.578,115.404,43.839,115.404 M43.839,113.404
				c-0.606,0-1.196,0.15-1.704,0.436l-21.793,12.204c-0.954,0.532-1.641,1.39-1.931,2.413c-0.291,1.025-0.155,2.117,0.381,3.074
				c0.509,0.912,1.436,1.653,2.417,1.931c0.318,0.09,0.666,0.136,1.031,0.136c0.72,0,1.444-0.184,2.04-0.516l21.543-12.062
				c0.957-0.538,1.641-1.396,1.93-2.419c0.29-1.025,0.153-2.117-0.384-3.073C46.639,114.22,45.284,113.404,43.839,113.404
				L43.839,113.404z"/>
		</g>
	</g>
	<path fill="#657F05" d="M19.714,153.369l0.009,2.988l-2.25,1.928c-0.056,0.194-0.112,0.394-0.168,0.592c0,0,0.144,0.254,0.342,0.31
		l2.965,0.836l0.912,2.818c-0.056,0.196,0.141,0.254,0.341,0.309l0,0c0.197,0.056,0.45-0.085,0.506-0.282l1.769-2.489l2.989-0.01
		c0.2,0.056,0.451-0.087,0.507-0.282c0,0,0.058-0.197-0.085-0.453l-1.87-2.447l0.836-2.966c0.056-0.197,0.11-0.396-0.086-0.452
		c-0.143-0.253-0.339-0.307-0.593-0.165l-2.872,1.108l-2.293-1.713c-0.195-0.055-0.394-0.109-0.648,0.031
		C19.825,152.972,19.771,153.17,19.714,153.369z"/>
	<path fill="#657F05" d="M42.608,106.15l-1.104-1.38l0.501-1.779c0.056-0.198,0.112-0.396-0.086-0.452
		c-0.141-0.254-0.339-0.309-0.591-0.167l-1.663,0.599l-1.416-1.039c-0.198-0.057-0.395-0.112-0.649,0.031
		c-0.251,0.141-0.307,0.338-0.364,0.535l0.146,1.749l-1.378,1.105c-0.056,0.197-0.11,0.394-0.167,0.591c0,0,0.143,0.256,0.339,0.311
		l1.778,0.502l0.599,1.663c-0.056,0.196,0.143,0.254,0.339,0.309l0,0c0.197,0.056,0.452-0.086,0.507-0.283l1.041-1.414l1.691,0.052
		c0.197,0.055,0.451-0.088,0.507-0.284C42.693,106.598,42.749,106.401,42.608,106.15z"/>
	<path fill="#657F05" d="M115.611,49.527l-1.106-1.377l0.502-1.779c0.058-0.199,0.113-0.395-0.085-0.451
		c-0.141-0.254-0.34-0.309-0.592-0.168l-1.664,0.6l-1.413-1.041c-0.197-0.055-0.396-0.111-0.649,0.031
		c-0.253,0.141-0.309,0.339-0.365,0.537l0.148,1.748l-1.379,1.105c-0.058,0.197-0.113,0.395-0.169,0.593
		c0,0,0.142,0.254,0.341,0.309l1.779,0.501l0.596,1.664c-0.054,0.197,0.143,0.254,0.341,0.308l0,0
		c0.199,0.057,0.45-0.085,0.507-0.282l1.038-1.414l1.694,0.052c0.197,0.054,0.45-0.087,0.508-0.284
		C115.697,49.979,115.752,49.781,115.611,49.527z"/>
	<path fill="#657F05" d="M15.077,131.884l-1.106-1.379l0.502-1.78c0.057-0.197,0.111-0.394-0.087-0.449
		c-0.142-0.255-0.338-0.311-0.592-0.169l-1.663,0.597l-1.413-1.037c-0.2-0.055-0.396-0.111-0.649,0.029
		c-0.254,0.143-0.309,0.342-0.365,0.539l0.146,1.748l-1.378,1.105c-0.058,0.196-0.112,0.395-0.168,0.592
		c0,0,0.143,0.254,0.339,0.309l1.779,0.502l0.598,1.664c-0.056,0.197,0.143,0.252,0.339,0.309l0,0
		c0.2,0.056,0.451-0.086,0.508-0.285l1.038-1.413l1.694,0.05c0.197,0.059,0.449-0.088,0.504-0.283
		C15.162,132.334,15.217,132.137,15.077,131.884z"/>
	<path fill="#657F05" d="M58.329,108.663c-0.566-1.014-1.753-1.348-2.766-0.78l-5.829,3.263c-1.016,0.569-1.349,1.754-0.781,2.769
		c0.284,0.506,0.82,0.872,1.216,0.982c0.396,0.112,1.044,0.082,1.551-0.203l5.829-3.262
		C58.563,110.862,58.897,109.678,58.329,108.663z"/>
	<path fill="#657F05" d="M40.276,125.762L10.823,142.42c-1.014,0.567-1.348,1.752-0.78,2.766c0.283,0.508,0.819,0.871,1.216,0.984
		c0.394,0.111,1.043,0.082,1.55-0.203l29.453-16.656c1.015-0.566,1.349-1.755,0.78-2.768
		C42.476,125.529,41.288,125.195,40.276,125.762z"/>
	<path fill="#657F05" d="M32.313,140.373c-1.014,0.567-1.348,1.754-0.781,2.768c0.283,0.507,0.822,0.871,1.216,0.984
		c0.396,0.111,1.043,0.082,1.551-0.205l29.396-16.457c1.014-0.567,1.35-1.756,0.782-2.768c-0.566-1.014-1.754-1.348-2.768-0.781
		L32.313,140.373z"/>
	<path fill="#657F05" d="M43.397,114.693l-21.794,12.204c-1.014,0.567-1.348,1.753-0.779,2.765c0.283,0.508,0.82,0.872,1.216,0.985
		c0.395,0.11,1.042,0.081,1.549-0.204l21.541-12.061c1.015-0.566,1.349-1.753,0.78-2.768
		C45.345,114.603,44.158,114.268,43.397,114.693z"/>
	<path fill="#657F05" d="M90.244,171.016l-0.911-2.818l1.712-2.289c0.254-0.144,0.312-0.342,0.168-0.594
		c-0.141-0.254-0.339-0.311-0.537-0.366l-2.989,0.011l-1.673-2.393c-0.199-0.057-0.396-0.111-0.593-0.168
		c0,0-0.253,0.142-0.311,0.339l-1.032,2.909l-2.818,0.914c-0.197-0.057-0.254,0.141-0.311,0.338
		c-0.055,0.199,0.087,0.452,0.284,0.507l2.49,1.771l0.011,2.99c-0.057,0.196,0.083,0.45,0.284,0.507
		c0.196,0.054,0.196,0.054,0.196,0.054c0.197,0.058,0.396,0.113,0.45-0.084l2.394-1.673l2.909,1.034c0,0,0.394,0.111,0.45-0.086
		C90.474,171.721,90.528,171.523,90.244,171.016z"/>
	<path fill="#657F05" d="M9.138,110.576c-0.197-0.058-0.254,0.142-0.31,0.34c-0.055,0.196,0.088,0.45,0.285,0.506l2.488,1.77
		l0.008,2.99c-0.054,0.196,0.088,0.452,0.285,0.506c0.198,0.057,0.198,0.057,0.198,0.057c0.198,0.056,0.396,0.113,0.45-0.088
		l2.648-1.812l2.908,1.034c0,0,0.197,0.055,0.451-0.088c0.252-0.14,0.309-0.339,0.166-0.592l-0.912-2.817l1.712-2.292
		c0.255-0.141,0.31-0.34,0.169-0.594c-0.142-0.254-0.339-0.309-0.538-0.365l-2.99,0.012l-1.671-2.393
		c-0.199-0.055-0.397-0.113-0.594-0.166c0,0-0.254,0.14-0.311,0.338l-1.032,2.909L9.138,110.576z"/>
	<path fill="#657F05" d="M77.584,36.635l-0.911-2.818l1.712-2.29c0.255-0.144,0.31-0.339,0.168-0.593s-0.34-0.309-0.539-0.365
		l-3.131-0.242l-1.672-2.393c-0.197-0.057-0.394-0.113-0.594-0.17c0,0-0.253,0.143-0.307,0.342l-1.035,2.908l-2.818,0.912
		c-0.198-0.055-0.255,0.143-0.309,0.34c-0.057,0.199,0.085,0.453,0.283,0.508l2.488,1.768l0.01,2.988
		c-0.056,0.201,0.086,0.453,0.285,0.508c0.198,0.057,0.198,0.057,0.198,0.057c0.197,0.057,0.394,0.113,0.451-0.086l2.392-1.672
		l2.712,0.979c0.198,0.056,0.394,0.112,0.449-0.086C77.473,37.031,77.529,36.834,77.584,36.635z"/>
	<path fill="#657F05" d="M181.451,119.498l-1.54-5.13l3.314-4.185c0.253-0.143,0.309-0.34,0.166-0.594
		c-0.142-0.254-0.339-0.311-0.536-0.366l-5.332-0.011l-3.005-4.475c-0.197-0.055-0.396-0.111-0.593-0.166
		c0,0-0.253,0.142-0.309,0.339l-1.649,5.083l-5.326,1.484c-0.199-0.057-0.253,0.144-0.311,0.341
		c-0.053,0.196,0.087,0.45,0.285,0.507l4.439,3.171l-0.208,5.278c-0.057,0.195,0.085,0.451,0.283,0.506
		c0.197,0.055,0.197,0.055,0.197,0.055c0.198,0.059,0.395,0.111,0.453-0.084l4.277-3.063l5.027,1.848c0,0,0.396,0.109,0.451-0.088
		C181.79,119.808,181.848,119.61,181.451,119.498z"/>
	<path fill="#657F05" d="M137.845,37.846l-1.539-5.127l3.313-4.188c0.256-0.141,0.31-0.338,0.169-0.593
		c-0.143-0.252-0.341-0.309-0.539-0.363l-5.33-0.012l-3.004-4.475c-0.2-0.057-0.396-0.111-0.593-0.168c0,0-0.254,0.142-0.311,0.34
		l-1.647,5.082l-5.128,1.543c-0.198-0.059-0.254,0.141-0.309,0.337c-0.058,0.197,0.085,0.452,0.282,0.508l4.44,3.173l-0.208,5.277
		c-0.058,0.197,0.084,0.449,0.284,0.506c0.197,0.055,0.197,0.055,0.197,0.055c0.197,0.057,0.396,0.111,0.452-0.086l4.277-3.059
		l5.027,1.844c0,0,0.396,0.111,0.451-0.086C138.186,38.154,138.24,37.959,137.845,37.846z"/>
	<path fill="#657F05" d="M52.864,68.285l-0.857-3.016l1.716-2.291c0.253-0.143,0.309-0.34,0.165-0.592
		c-0.141-0.256-0.338-0.311-0.538-0.365l-2.989,0.01l-1.672-2.393c-0.196-0.059-0.396-0.111-0.593-0.168c0,0-0.254,0.143-0.31,0.339
		l-1.43,2.798l-2.818,0.912c-0.197-0.055-0.253,0.143-0.309,0.339c-0.055,0.197,0.087,0.45,0.285,0.508l2.489,1.769l0.011,2.99
		c-0.057,0.198,0.084,0.451,0.281,0.507c0.198,0.056,0.198,0.056,0.198,0.056c0.198,0.057,0.395,0.11,0.453-0.086l2.391-1.673
		l2.91,1.036c0,0,0.395,0.111,0.45-0.088C52.753,68.681,52.809,68.482,52.864,68.285z"/>
	<path fill="#657F05" d="M149.128,140.043l-0.713-2.764l1.911-2.236c0.253-0.139,0.31-0.337,0.168-0.59
		c0.055-0.199-0.144-0.255-0.342-0.311l-2.934-0.186l-1.615-2.591c-0.199-0.058-0.397-0.112-0.594-0.168
		c-0.197-0.054-0.451,0.086-0.507,0.284l-0.979,2.71l-2.958,0.66c-0.198-0.056-0.254,0.141-0.308,0.339
		c0.141,0.254,0.085,0.451,0.282,0.506l2.236,1.912l-0.188,2.935c-0.056,0.2,0.086,0.452,0.285,0.507
		c0.197,0.055,0.197,0.055,0.197,0.055c0.197,0.059,0.395,0.113,0.45-0.085l2.592-1.616l2.654,1.178
		c0.199,0.055,0.199,0.055,0.453-0.088C149.273,140.297,149.326,140.098,149.128,140.043z"/>
	<path fill="#A1D700" d="M19.714,150.25l0.009,2.989l-2.25,1.929c-0.056,0.195-0.112,0.395-0.168,0.59c0,0,0.144,0.256,0.342,0.311
		l2.965,0.838l0.912,2.816c-0.056,0.199,0.141,0.254,0.341,0.309l0,0c0.197,0.057,0.45-0.085,0.506-0.283l1.769-2.486l2.989-0.012
		c0.2,0.057,0.451-0.087,0.507-0.283c0,0,0.058-0.197-0.085-0.451l-1.87-2.448l0.836-2.966c0.056-0.195,0.11-0.395-0.086-0.449
		c-0.143-0.254-0.339-0.311-0.593-0.168l-2.872,1.11l-2.293-1.714c-0.195-0.057-0.394-0.111-0.648,0.031
		C19.825,149.854,19.771,150.053,19.714,150.25z"/>
	<path fill="#A1D700" d="M42.608,103.031l-1.104-1.379l0.501-1.779c0.056-0.197,0.112-0.395-0.086-0.451
		c-0.141-0.252-0.339-0.307-0.591-0.168l-1.663,0.6l-1.416-1.039c-0.198-0.057-0.395-0.113-0.649,0.03
		c-0.251,0.14-0.307,0.34-0.364,0.537l0.146,1.747l-1.378,1.105c-0.056,0.197-0.11,0.395-0.167,0.594c0,0,0.143,0.253,0.339,0.309
		l1.778,0.504l0.599,1.66c-0.056,0.199,0.143,0.254,0.339,0.309l0,0c0.197,0.055,0.452-0.084,0.507-0.283l1.041-1.412l1.691,0.05
		c0.197,0.058,0.451-0.087,0.507-0.284C42.693,103.482,42.749,103.283,42.608,103.031z"/>
	<path fill="#A1D700" d="M115.611,46.41l-1.106-1.378l0.502-1.778c0.058-0.2,0.113-0.396-0.085-0.452
		c-0.141-0.253-0.34-0.309-0.592-0.165l-1.664,0.596l-1.413-1.037c-0.197-0.058-0.396-0.113-0.649,0.029
		c-0.253,0.141-0.309,0.338-0.365,0.537l0.148,1.748l-1.379,1.104c-0.058,0.196-0.113,0.394-0.169,0.595
		c0,0,0.142,0.252,0.341,0.307l1.779,0.505l0.596,1.659c-0.054,0.197,0.143,0.256,0.341,0.311l0,0
		c0.199,0.055,0.45-0.086,0.507-0.284l1.038-1.415l1.694,0.053c0.197,0.055,0.45-0.086,0.508-0.284
		C115.697,46.86,115.752,46.663,115.611,46.41z"/>
	<path fill="#A1D700" d="M15.077,128.766l-1.106-1.379l0.502-1.779c0.057-0.197,0.111-0.395-0.087-0.451
		c-0.142-0.254-0.338-0.309-0.592-0.166l-1.663,0.598l-1.413-1.039c-0.2-0.057-0.396-0.111-0.649,0.029
		c-0.254,0.144-0.309,0.34-0.365,0.537l0.146,1.75l-1.378,1.105c-0.058,0.195-0.112,0.393-0.168,0.593c0,0,0.143,0.253,0.339,0.308
		l1.779,0.502l0.598,1.663c-0.056,0.196,0.143,0.251,0.339,0.309l0,0c0.2,0.056,0.451-0.087,0.508-0.284l1.038-1.412l1.694,0.05
		c0.197,0.057,0.449-0.086,0.504-0.284C15.162,129.215,15.217,129.018,15.077,128.766z"/>
	<g>
		<path fill="#0D1C33" d="M50.653,112.839c-0.271,0-0.524-0.032-0.753-0.097c-0.723-0.203-1.437-0.775-1.818-1.458
			c-0.406-0.724-0.51-1.545-0.293-2.313c0.216-0.766,0.734-1.411,1.458-1.815l5.828-3.263c0.47-0.264,0.994-0.403,1.514-0.403
			c1.088,0,2.066,0.587,2.614,1.569c0.404,0.72,0.509,1.541,0.292,2.308c-0.216,0.768-0.733,1.413-1.456,1.818l-5.83,3.263
			C51.759,112.7,51.207,112.839,50.653,112.839C50.653,112.839,50.653,112.839,50.653,112.839z"/>
		<path fill="#A1D700" d="M56.588,104.49c0.7,0,1.36,0.374,1.741,1.057c0.568,1.012,0.234,2.198-0.779,2.767l-5.829,3.262
			c-0.333,0.187-0.725,0.264-1.068,0.264c-0.181,0-0.347-0.021-0.483-0.06c-0.396-0.111-0.933-0.477-1.216-0.983
			c-0.568-1.015-0.235-2.199,0.781-2.767l5.829-3.264C55.896,104.579,56.247,104.49,56.588,104.49 M56.588,102.49
			c-0.69,0-1.384,0.184-2.003,0.531l-5.827,3.263c-0.956,0.534-1.643,1.393-1.932,2.416c-0.29,1.024-0.153,2.116,0.383,3.073
			c0.513,0.916,1.44,1.656,2.42,1.932c0.317,0.089,0.662,0.134,1.024,0.134c0.722,0,1.448-0.185,2.045-0.519l5.828-3.262
			c0.958-0.537,1.643-1.396,1.932-2.42c0.288-1.025,0.151-2.115-0.385-3.071C59.349,103.269,58.045,102.49,56.588,102.49
			L56.588,102.49z"/>
	</g>
	<g>
		<path fill="#0D1C33" d="M11.745,144.112c-0.268,0-0.529-0.033-0.755-0.097c-0.721-0.2-1.435-0.773-1.819-1.459
			c-0.405-0.723-0.509-1.543-0.292-2.31c0.216-0.768,0.733-1.413,1.457-1.818l29.449-16.654c0.473-0.266,0.995-0.404,1.514-0.404
			c1.09,0,2.068,0.587,2.616,1.569c0.405,0.721,0.51,1.542,0.293,2.309c-0.217,0.768-0.734,1.412-1.459,1.816l-29.448,16.656
			C12.85,143.975,12.298,144.112,11.745,144.112z"/>
		<path fill="#A1D700" d="M41.299,122.37c0.7,0,1.362,0.375,1.743,1.057c0.569,1.013,0.235,2.198-0.78,2.765l-29.453,16.659
			c-0.331,0.186-0.722,0.263-1.064,0.263c-0.182,0-0.349-0.022-0.486-0.061c-0.396-0.11-0.933-0.479-1.216-0.984
			c-0.567-1.013-0.233-2.199,0.78-2.767l29.453-16.657C40.607,122.459,40.958,122.37,41.299,122.37 M41.299,120.37
			c-0.69,0-1.382,0.183-2,0.529l-29.46,16.661c-0.949,0.531-1.635,1.391-1.924,2.415c-0.289,1.024-0.152,2.114,0.383,3.07
			c0.515,0.919,1.444,1.661,2.425,1.934c0.314,0.088,0.659,0.134,1.022,0.134c0.722,0,1.448-0.185,2.042-0.519l29.459-16.663
			c0.948-0.529,1.635-1.387,1.924-2.412c0.289-1.024,0.152-2.115-0.385-3.072C44.06,121.148,42.756,120.37,41.299,120.37
			L41.299,120.37z"/>
	</g>
	<g>
		<path fill="#0D1C33" d="M33.232,142.067c-0.266,0-0.525-0.033-0.751-0.096c-0.558-0.16-1.362-0.637-1.823-1.46
			c-0.831-1.484-0.318-3.298,1.166-4.129l29.396-16.46c0.471-0.263,0.994-0.401,1.512-0.401c1.09,0,2.069,0.586,2.618,1.569
			c0.405,0.723,0.509,1.544,0.292,2.311s-0.735,1.411-1.458,1.816l-29.396,16.459C34.338,141.929,33.786,142.067,33.232,142.067
			L33.232,142.067z"/>
		<path fill="#A1D700" d="M62.731,120.521c0.702,0,1.364,0.375,1.745,1.057c0.568,1.015,0.232,2.199-0.782,2.767l-29.396,16.46
			c-0.332,0.186-0.724,0.262-1.066,0.262c-0.181,0-0.348-0.021-0.485-0.059c-0.394-0.113-0.933-0.479-1.216-0.984
			c-0.567-1.014-0.232-2.2,0.781-2.768l29.396-16.461C62.04,120.609,62.391,120.521,62.731,120.521 M62.731,118.521
			c-0.688,0-1.379,0.182-1.997,0.526l-29.399,16.463c-1.973,1.104-2.654,3.515-1.55,5.489c0.509,0.91,1.433,1.648,2.41,1.93
			c0.335,0.094,0.678,0.137,1.037,0.137c0.722,0,1.448-0.184,2.043-0.517l29.396-16.46c0.956-0.535,1.643-1.393,1.932-2.416
			c0.29-1.024,0.154-2.115-0.382-3.073C65.494,119.299,64.189,118.521,62.731,118.521L62.731,118.521z"/>
	</g>
	<g>
		<path fill="#0D1C33" d="M22.526,128.591c-0.274,0-0.53-0.034-0.761-0.101c-0.544-0.152-1.351-0.628-1.814-1.458
			c-0.404-0.722-0.509-1.542-0.292-2.309c0.216-0.767,0.733-1.412,1.457-1.817l21.793-12.203c0.36-0.202,0.78-0.309,1.215-0.309
			c1.084,0,2.103,0.62,2.661,1.618c0.405,0.72,0.509,1.54,0.293,2.308c-0.216,0.768-0.734,1.413-1.458,1.818l-21.541,12.061
			C23.628,128.452,23.077,128.591,22.526,128.591L22.526,128.591z"/>
		<path fill="#A1D700" d="M44.124,111.395c0.657,0,1.381,0.379,1.787,1.105c0.568,1.012,0.234,2.198-0.78,2.766L23.59,127.327
			c-0.332,0.186-0.723,0.263-1.064,0.263c-0.181,0-0.348-0.021-0.485-0.061c-0.396-0.111-0.933-0.477-1.216-0.984
			c-0.568-1.014-0.234-2.198,0.779-2.766l21.794-12.204C43.613,111.455,43.863,111.395,44.124,111.395 M44.124,109.395
			c-0.606,0-1.195,0.15-1.703,0.436l-21.795,12.204c-0.956,0.536-1.642,1.394-1.931,2.418c-0.288,1.024-0.152,2.114,0.385,3.071
			c0.509,0.914,1.438,1.655,2.419,1.932c0.311,0.089,0.66,0.135,1.027,0.135c0.719,0,1.444-0.184,2.041-0.518l21.542-12.062
			c0.957-0.535,1.643-1.395,1.932-2.419c0.288-1.025,0.151-2.115-0.385-3.071C46.923,110.211,45.569,109.395,44.124,109.395
			L44.124,109.395z"/>
	</g>
	<path fill="#A1D700" d="M90.244,167.898l-0.911-2.817l1.712-2.292c0.254-0.141,0.312-0.339,0.168-0.593
		c-0.141-0.253-0.339-0.31-0.537-0.364l-2.989,0.01l-1.673-2.394c-0.199-0.056-0.396-0.11-0.593-0.167c0,0-0.253,0.145-0.311,0.34
		l-1.032,2.91l-2.818,0.912c-0.197-0.057-0.254,0.141-0.311,0.338c-0.055,0.197,0.087,0.453,0.284,0.508l2.49,1.768l0.011,2.992
		c-0.057,0.197,0.083,0.449,0.284,0.508c0.196,0.055,0.196,0.055,0.196,0.055c0.197,0.055,0.396,0.111,0.45-0.086l2.394-1.674
		l2.909,1.035c0,0,0.394,0.113,0.45-0.086C90.474,168.604,90.528,168.406,90.244,167.898z"/>
	<path fill="#A1D700" d="M181.451,116.379l-1.54-5.127l3.314-4.187c0.253-0.142,0.309-0.339,0.166-0.593
		c-0.142-0.254-0.339-0.311-0.536-0.367l-5.332-0.008l-3.005-4.478c-0.197-0.055-0.396-0.11-0.593-0.167c0,0-0.253,0.143-0.309,0.34
		l-1.649,5.084l-5.326,1.484c-0.199-0.057-0.253,0.143-0.311,0.34c-0.053,0.197,0.087,0.451,0.285,0.506l4.439,3.175l-0.208,5.276
		c-0.057,0.197,0.085,0.449,0.283,0.504c0.197,0.058,0.197,0.058,0.197,0.058c0.198,0.056,0.395,0.11,0.453-0.086l4.277-3.062
		l5.027,1.846c0,0,0.396,0.11,0.451-0.086C181.79,116.689,181.848,116.492,181.451,116.379z"/>
	<path fill="#A1D700" d="M137.845,34.727l-1.539-5.126l3.313-4.187c0.256-0.143,0.31-0.34,0.169-0.594
		c-0.143-0.252-0.341-0.309-0.539-0.363l-5.33-0.014l-3.004-4.475c-0.2-0.056-0.396-0.11-0.593-0.167c0,0-0.254,0.143-0.311,0.341
		l-1.647,5.084l-5.128,1.539c-0.198-0.056-0.254,0.143-0.309,0.34c-0.058,0.199,0.085,0.449,0.282,0.508l4.44,3.172l-0.208,5.276
		c-0.058,0.196,0.084,0.453,0.284,0.507c0.197,0.055,0.197,0.055,0.197,0.055c0.197,0.056,0.396,0.112,0.452-0.086l4.277-3.061
		l5.027,1.845c0,0,0.396,0.11,0.451-0.087S138.24,34.842,137.845,34.727z"/>
	<path fill="#A1D700" d="M52.864,65.168l-0.857-3.016l1.716-2.291c0.253-0.144,0.309-0.34,0.165-0.593
		c-0.141-0.255-0.338-0.31-0.538-0.365l-2.989,0.009l-1.672-2.393c-0.196-0.054-0.396-0.109-0.593-0.167c0,0-0.254,0.142-0.31,0.341
		l-1.43,2.798l-2.818,0.912c-0.197-0.057-0.253,0.142-0.309,0.339c-0.055,0.199,0.087,0.451,0.285,0.506l2.489,1.771l0.011,2.989
		c-0.057,0.197,0.084,0.451,0.281,0.506c0.198,0.057,0.198,0.057,0.198,0.057c0.198,0.055,0.395,0.112,0.453-0.087l2.391-1.671
		l2.91,1.033c0,0,0.395,0.113,0.45-0.086C52.753,65.563,52.809,65.363,52.864,65.168z"/>
	<path fill="#A1D700" d="M149.128,136.925l-0.713-2.761l1.911-2.235c0.253-0.142,0.31-0.339,0.168-0.593
		c0.055-0.199-0.144-0.254-0.342-0.311l-2.934-0.186l-1.615-2.59c-0.199-0.057-0.397-0.113-0.594-0.17
		c-0.197-0.055-0.451,0.086-0.507,0.285l-0.979,2.713l-2.958,0.656c-0.198-0.055-0.254,0.141-0.308,0.342
		c0.141,0.252,0.085,0.449,0.282,0.504l2.236,1.912l-0.188,2.934c-0.056,0.199,0.086,0.451,0.285,0.508
		c0.197,0.055,0.197,0.055,0.197,0.055c0.197,0.059,0.395,0.113,0.45-0.084l2.592-1.619l2.654,1.178
		c0.199,0.055,0.199,0.055,0.453-0.086C149.273,137.179,149.326,136.979,149.128,136.925z"/>
	<g>
		<path fill="#657F05" d="M37.682,164.161c-1.253,0-2.397-0.687-2.988-1.79c-0.313-0.584-0.445-1.245-0.383-1.916
			c0.001-1.258,0.679-2.398,1.781-2.987l48.11-27.906c-0.245-0.31-0.464-0.635-0.658-0.975L70.82,106.67
			c-0.82-1.419-1.19-3.027-1.074-4.653c0.066-2.809,1.575-5.372,4.036-6.81l50.38-29.288l-1.733-2.984
			c-0.645-1.129-0.936-2.407-0.845-3.702c0.003-0.508,0.079-1.058,0.221-1.576c0.194-0.731,0.516-1.429,0.954-2.063
			c1.222-1.751,3.221-2.794,5.35-2.794c0.381,0,0.764,0.033,1.14,0.101l37.894,6.371c0.392,0.064,0.79,0.17,1.179,0.313
			c2.704,0.993,4.466,3.698,4.284,6.577c-0.003,0.717-0.137,1.467-0.398,2.173L159,104.471c-0.532,1.491-1.589,2.743-2.975,3.519
			c-0.979,0.549-2.088,0.84-3.206,0.84l0,0c-2.375,0-4.572-1.287-5.732-3.358l-1.862-3.205l-34.871,20.244
			c0,0-71.002,41.209-71.069,41.246C38.786,164.022,38.235,164.161,37.682,164.161z"/>
		<path fill="#657F05" d="M128.108,53.8c0.32,0,0.643,0.028,0.965,0.085l37.903,6.373c0.34,0.056,0.673,0.146,0.999,0.266
			c2.367,0.869,3.784,3.179,3.632,5.575c-0.004,0.628-0.108,1.267-0.338,1.89l-13.208,36.139c-0.452,1.269-1.349,2.332-2.524,2.989
			c-0.861,0.483-1.795,0.712-2.718,0.712c-1.948,0-3.839-1.023-4.859-2.846l-2.372-4.084l-18.479,10.73
			c-1.538,0.891,0,0-1.538,0.891l-15.718,9.125l-70.902,41.15c-0.047,0.029-0.096,0.057-0.146,0.084
			c-0.358,0.191-0.743,0.282-1.123,0.282c-0.852,0-1.676-0.458-2.105-1.262c-0.238-0.444-0.316-0.929-0.265-1.397
			c-0.015-0.867,0.434-1.715,1.252-2.152l49.224-28.551c-0.542-0.494-1.011-1.069-1.374-1.707l-12.729-21.924
			c-0.742-1.285-1.04-2.702-0.941-4.079c0.057-2.403,1.316-4.718,3.542-6.019l34.576-20.1l16.666-9.689l-2.235-3.849
			c-0.545-0.955-0.788-2.046-0.712-3.13c0.005-0.463,0.063-0.926,0.188-1.382c0.167-0.628,0.442-1.224,0.812-1.759
			C124.624,54.666,126.324,53.8,128.108,53.8 M128.108,51.8c-2.456,0-4.761,1.202-6.167,3.218c-0.509,0.737-0.879,1.539-1.105,2.391
			c-0.156,0.566-0.242,1.182-0.253,1.814c-0.092,1.473,0.244,2.924,0.974,4.201l1.239,2.133l-14.938,8.686l-34.576,20.1
			c-2.752,1.607-4.444,4.465-4.536,7.651c-0.12,1.81,0.297,3.598,1.208,5.175l12.731,21.928c0.027,0.048,0.055,0.096,0.083,0.143
			l-47.181,27.367c-1.395,0.762-2.257,2.207-2.274,3.804c-0.07,0.851,0.103,1.69,0.502,2.436c0.763,1.428,2.246,2.316,3.868,2.316
			c0.717,0,1.431-0.179,2.065-0.519c0.088-0.048,0.161-0.089,0.229-0.131l70.881-41.137l15.718-9.126l0.768-0.444l0.769-0.445
			l16.752-9.727l1.368,2.354c1.322,2.359,3.852,3.842,6.589,3.842c1.289,0,2.567-0.334,3.696-0.968
			c1.595-0.892,2.814-2.335,3.429-4.062l13.203-36.124c0.292-0.792,0.447-1.636,0.459-2.507c0.183-3.297-1.842-6.384-4.943-7.521
			c-0.445-0.165-0.905-0.287-1.364-0.362l-37.895-6.372C128.989,51.839,128.547,51.8,128.108,51.8L128.108,51.8z"/>
	</g>
	<path fill="#0D1C33" d="M167.673,55.725c-0.324-0.118-0.661-0.208-1-0.264l-37.902-6.373c-2.117-0.375-4.26,0.514-5.492,2.278
		c-0.37,0.534-0.645,1.13-0.812,1.759c-0.386,1.412-0.192,2.92,0.532,4.189l2.372,4.086l-16.811,9.772L73.983,91.273
		c-3.406,1.99-4.565,6.357-2.594,9.777l12.729,21.924c0.412,0.722,0.949,1.365,1.583,1.9l-49.439,28.68
		c-1.162,0.62-1.666,2.267-1.044,3.428c0.622,1.162,2.123,1.72,3.284,1.102c0.05-0.027,0.05-0.027,0.337-0.264l70.718-41.293
		l15.719-9.125c0.606-0.09,1.158-0.408,1.536-0.893l18.48-10.729l2.371,4.085c1.504,2.683,4.897,3.636,7.579,2.134
		c1.174-0.66,2.072-1.723,2.523-2.992l13.209-36.137C172.037,59.986,170.559,56.786,167.673,55.725z M127.794,65.547l6.881,11.832
		l-18.71-4.965L127.794,65.547z M91.524,121.482c-1.139,0.66-2.597,0.273-3.261-0.863l-6.188-10.662l20.108,5.336L91.524,121.482z
		 M107.998,111.918l-28.687-7.612c-0.181-0.075-0.372-0.125-0.568-0.151l-3.228-5.563c-0.66-1.143-0.274-2.6,0.865-3.261l1.03-0.599
		c0.138,0.098,0.285,0.184,0.443,0.25l40.707,10.803L107.998,111.918z M124.399,102.397L83.182,91.46l10.563-6.134l41.219,10.938
		L124.399,102.397z M140.802,92.861L99.567,81.935l10.562-6.133l27.934,7.412l4.879,8.405L140.802,92.861z M166.529,61.148
		l-13.232,36.098c-0.151,0.412-0.609,0.625-1.021,0.475c-0.174-0.063-0.32-0.186-0.414-0.344l-3.567-6.147L130.71,61.122
		l-3.569-6.146c-0.208-0.388-0.063-0.872,0.325-1.078c0.156-0.084,0.335-0.114,0.509-0.084l37.906,6.355
		c0.234,0.037,0.441,0.176,0.561,0.38C166.55,60.729,166.581,60.946,166.529,61.148z"/>
	<polygon fill="#35B8E4" points="83.182,91.46 124.399,102.397 134.964,96.264 93.745,85.326 	"/>
	<path fill="#F39454" d="M77.411,94.732l-1.03,0.599c-1.14,0.661-1.525,2.118-0.865,3.261l3.228,5.563
		c0.196,0.026,0.387,0.076,0.568,0.151l28.687,7.612l10.563-6.133L77.854,94.982C77.696,94.916,77.549,94.83,77.411,94.732z"/>
	<polygon fill="#FEEB47" points="127.794,65.547 115.965,72.414 134.675,77.379 	"/>
	<path fill="#FEEB47" d="M88.264,120.619c0.664,1.137,2.122,1.523,3.261,0.863l10.659-6.189l-20.108-5.336L88.264,120.619z"/>
	<path fill="#F05E6B" d="M165.882,60.17l-37.906-6.355c-0.174-0.03-0.354,0-0.509,0.084c-0.387,0.206-0.533,0.69-0.325,1.078
		l3.569,6.146l17.584,30.107l3.567,6.147c0.094,0.158,0.24,0.281,0.414,0.344c0.411,0.15,0.869-0.063,1.021-0.475l13.232-36.098
		c0.052-0.202,0.021-0.42-0.086-0.599C166.323,60.346,166.116,60.207,165.882,60.17z"/>
	<polygon fill="#A1C563" points="110.129,75.802 99.567,81.935 140.802,92.861 142.941,91.619 138.063,83.214 	"/>
	<g>
		<path fill="#A1D700" d="M127.8,49.324c0.319,0,0.642,0.027,0.963,0.084l37.902,6.372c0.339,0.058,0.676,0.146,0.998,0.266
			c2.888,1.06,4.366,4.26,3.304,7.146l-13.21,36.138c-0.45,1.269-1.348,2.333-2.521,2.991c-0.861,0.482-1.796,0.711-2.718,0.711
			c-1.949,0-3.84-1.024-4.861-2.846l-2.374-4.084l-18.479,10.729c-1.536,0.891,0,0-1.536,0.891l-15.718,9.127l-70.901,41.15
			c-0.049,0.029-0.097,0.059-0.147,0.086c-0.358,0.19-0.742,0.281-1.121,0.281c-0.853,0-1.678-0.459-2.106-1.263
			c-0.621-1.162-0.184-2.606,0.979-3.228l49.442-28.678c-0.636-0.537-1.172-1.181-1.586-1.904L71.382,101.37
			c-1.972-3.415-0.813-7.784,2.595-9.776l34.577-20.101l16.81-9.772l-2.371-4.084c-0.728-1.272-0.918-2.779-0.534-4.191
			c0.166-0.629,0.441-1.223,0.814-1.757C124.315,50.191,126.015,49.324,127.8,49.324 M127.8,47.324
			c-2.458,0-4.764,1.204-6.169,3.222c-0.507,0.728-0.88,1.532-1.106,2.39c-0.524,1.923-0.266,3.951,0.731,5.694l1.374,2.366
			l-15.082,8.768L72.972,89.865c-4.348,2.541-5.836,8.15-3.321,12.505l12.729,21.927c0.073,0.129,0.149,0.254,0.229,0.379
			l-47.333,27.455c-2.106,1.149-2.898,3.793-1.764,5.914c0.761,1.43,2.244,2.32,3.87,2.32c0.715,0,1.427-0.179,2.061-0.516
			c0.084-0.046,0.15-0.084,0.216-0.125l70.896-41.146l15.718-9.128l0.767-0.444l0.768-0.445l16.751-9.726l1.37,2.355
			c1.321,2.358,3.853,3.841,6.59,3.841c1.288,0,2.565-0.334,3.694-0.966c1.601-0.897,2.818-2.342,3.43-4.067l13.204-36.12
			c0.697-1.894,0.614-3.95-0.235-5.785c-0.849-1.835-2.361-3.228-4.259-3.925c-0.421-0.156-0.879-0.279-1.353-0.359l-37.905-6.373
			C128.68,47.362,128.238,47.324,127.8,47.324L127.8,47.324z"/>
	</g>
	<polyline fill="#657F05" points="18.951,112.533 18.906,115.614 16.01,112.059 	"/>
	<path fill="#A1D700" d="M9.138,107.459c-0.197-0.057-0.254,0.143-0.31,0.338c-0.055,0.197,0.088,0.451,0.285,0.508l2.488,1.77
		l0.008,2.99c-0.054,0.197,0.088,0.451,0.285,0.508c0.198,0.055,0.198,0.055,0.198,0.055c0.198,0.057,0.396,0.112,0.45-0.088
		l2.648-1.813l2.908,1.033c0,0,0.197,0.057,0.451-0.086c0.252-0.141,0.309-0.34,0.166-0.592l-0.912-2.818l1.712-2.291
		c0.255-0.142,0.31-0.341,0.169-0.594c-0.142-0.251-0.339-0.307-0.538-0.364l-2.99,0.01l-1.671-2.393
		c-0.199-0.056-0.397-0.11-0.594-0.166c0,0-0.254,0.143-0.311,0.339l-1.032,2.908L9.138,107.459z"/>
	<path fill="#A1D700" d="M77.584,33.518l-0.911-2.816l1.712-2.293c0.255-0.141,0.31-0.34,0.168-0.591
		c-0.142-0.255-0.34-0.311-0.539-0.366l-3.131-0.244l-1.672-2.392c-0.197-0.056-0.394-0.111-0.594-0.167c0,0-0.253,0.141-0.307,0.34
		l-1.035,2.908l-2.818,0.912c-0.198-0.055-0.255,0.143-0.309,0.34c-0.057,0.197,0.085,0.449,0.283,0.508l2.488,1.768l0.01,2.992
		c-0.056,0.196,0.086,0.449,0.285,0.507c0.198,0.054,0.198,0.054,0.198,0.054c0.197,0.056,0.394,0.112,0.451-0.086l2.392-1.674
		l2.712,0.98c0.198,0.055,0.394,0.111,0.449-0.088C77.473,33.914,77.529,33.717,77.584,33.518z"/>
</g>
</svg>
