<?xml version="1.0" encoding="utf-8"?>
<!-- Generator: Adobe Illustrator 16.0.0, SVG Export Plug-In . SVG Version: 6.00 Build 0)  -->
<!DOCTYPE svg PUBLIC "-//W3C//DTD SVG 1.1//EN" "http://www.w3.org/Graphics/SVG/1.1/DTD/svg11.dtd">
<svg version="1.1" id="Calque_1" xmlns="http://www.w3.org/2000/svg" xmlns:xlink="http://www.w3.org/1999/xlink" x="0px" y="0px"
	 width="46.5px" height="46.5px" viewBox="0 0 46.5 46.5" enable-background="new 0 0 46.5 46.5" xml:space="preserve">
<g>
	<path fill="#63BCEA" d="M23.25,0C10.409,0,0,10.409,0,23.25S10.409,46.5,23.25,46.5S46.5,36.091,46.5,23.25S36.091,0,23.25,0z
		 M23.25,42.873c-10.837,0-19.623-8.786-19.623-19.623S12.413,3.627,23.25,3.627s19.623,8.786,19.623,19.623
		S34.087,42.873,23.25,42.873z"/>
	<g>
		<path fill="#63BCEA" d="M14.707,15.824c0-1.226,0.937-2.199,2.163-2.199s2.199,0.973,2.199,2.199v0.937
			c1.226-1.766,2.992-3.316,5.948-3.316c4.29,0,6.777,2.884,6.777,7.282v10.166c0,1.225-0.937,2.163-2.163,2.163
			s-2.199-0.938-2.199-2.163v-8.832c0-2.956-1.478-4.65-4.074-4.65c-2.523,0-4.29,1.766-4.29,4.722v8.76
			c0,1.225-0.974,2.163-2.199,2.163c-1.189,0-2.163-0.938-2.163-2.163V15.824z"/>
	</g>
</g>
</svg>
